<?xml version="1.0" encoding="utf-8"?>
<!-- Generator: Adobe Illustrator 22.1.0, SVG Export Plug-In . SVG Version: 6.00 Build 0)  -->
<svg version="1.1" id="Layer_1" xmlns="http://www.w3.org/2000/svg" xmlns:xlink="http://www.w3.org/1999/xlink" x="0px" y="0px"
	 viewBox="0 0 108 38" style="enable-background:new 0 0 108 38;" xml:space="preserve">
<style type="text/css">
	.st0{fill:#FFFFFF;}
</style>
<title>logo_name</title>
<path class="st0" d="M44.6,26.9c0.2,0,0.4,0,0.6-0.1v1.3c-0.4,0.1-0.8,0.2-1.2,0.2c-0.7,0.1-1.4-0.3-1.7-1c-0.9,0.7-2,1.1-3.1,1.1
	c-1.5,0-2.9-0.8-2.9-2.6c0-2.1,2-2.8,3.7-2.8c0.7,0,1.5,0.1,2.2,0.2V23c0-1-0.8-1.8-2.2-1.8c-1,0-2.1,0.2-3,0.6v-1.7
	c1-0.4,2.1-0.5,3.2-0.6c2.4,0,3.8,1.1,3.8,3.6v3c0,0.3,0.2,0.6,0.5,0.6C44.5,26.9,44.5,26.9,44.6,26.9z M38.1,25.7
	c0.1,0.7,0.7,1.3,1.5,1.2c0,0,0.1,0,0.1,0c0.9,0,1.8-0.3,2.4-1v-1.4c-0.6-0.1-1.2-0.2-1.8-0.2C39.3,24.4,38.1,24.7,38.1,25.7
	L38.1,25.7z"/>
<path class="st0" d="M50.5,19.6c0.9,0,1.8,0.2,2.6,0.6V22c-0.7-0.5-1.5-0.7-2.3-0.7c-1.5-0.1-2.8,1-3,2.5c-0.1,1.5,1,2.8,2.5,3
	c0.2,0,0.3,0,0.5,0c0.9,0,1.7-0.2,2.4-0.6v1.7c-0.9,0.4-1.8,0.6-2.8,0.6c-2.3,0.2-4.3-1.6-4.5-3.9c0-0.1,0-0.3,0-0.4
	c-0.1-2.4,1.8-4.4,4.2-4.5C50.2,19.6,50.4,19.6,50.5,19.6z"/>
<path class="st0" d="M62.7,26.9c0.2,0,0.4,0,0.6-0.1v1.3c-0.4,0.1-0.8,0.2-1.2,0.2c-0.7,0.1-1.4-0.3-1.7-1c-0.9,0.7-2,1.1-3.1,1.1
	c-1.5,0-2.9-0.8-2.9-2.6c0-2.1,2-2.8,3.7-2.8c0.7,0,1.5,0.1,2.2,0.2V23c0-1-0.8-1.8-2.2-1.8c-1,0-2.1,0.2-3,0.6v-1.7
	c1-0.4,2.1-0.5,3.2-0.6c2.4,0,3.8,1.1,3.8,3.6v3c0,0.3,0.2,0.6,0.5,0.6C62.6,26.9,62.6,26.9,62.7,26.9z M56.2,25.7
	c0.1,0.7,0.7,1.3,1.5,1.2c0,0,0.1,0,0.1,0c0.9,0,1.8-0.3,2.4-1v-1.4c-0.6-0.1-1.2-0.2-1.8-0.2C57.3,24.4,56.2,24.7,56.2,25.7
	L56.2,25.7z"/>
<path class="st0" d="M73,16v12.1h-1.7v-1.3c-0.8,1-1.9,1.6-3.2,1.5c-2.4-0.2-4.3-2.3-4.1-4.7c0.1-2.2,1.9-4,4.1-4.1
	c1.1,0,2.2,0.4,3,1.3V16L73,16L73,16z M68.4,21.3c-1.5,0-2.8,1.2-2.8,2.8c0,1.5,1.2,2.8,2.8,2.8c1.2,0,2.2-0.7,2.7-1.8v-2
	C70.6,21.9,69.6,21.3,68.4,21.3z"/>
<path class="st0" d="M79,19.6c3.3,0,4.5,2.7,3.9,5.1h-6.3c0.2,1.5,1.7,2.1,3.2,2.1c0.9,0,1.8-0.2,2.6-0.6v1.6c-0.9,0.4-2,0.6-3,0.6
	c-2.6,0-4.8-1.5-4.8-4.4c-0.1-2.3,1.7-4.3,4-4.4C78.8,19.6,78.9,19.6,79,19.6z M79.1,21.2c-1.3-0.1-2.3,0.8-2.4,2.1c0,0,0,0,0,0.1
	h4.6c0.1-1.1-0.7-2-1.7-2.2C79.4,21.2,79.2,21.2,79.1,21.2L79.1,21.2z"/>
<path class="st0" d="M84.8,28.2v-8.3h1.6v1c0.7-0.8,1.7-1.3,2.8-1.3c1-0.1,2,0.4,2.6,1.3c0.8-0.8,1.8-1.3,2.9-1.3
	c1.7-0.1,3.1,1.2,3.2,2.9c0,0.1,0,0.3,0,0.4v5.2H96V23c0.1-0.9-0.5-1.7-1.4-1.7c-0.1,0-0.2,0-0.2,0c-0.8,0.1-1.6,0.5-2.1,1.1
	c0,0.2,0,0.4,0,0.6v5.2h-1.9V23c0.1-0.9-0.5-1.7-1.4-1.7c-0.1,0-0.2,0-0.2,0c-0.9,0.1-1.7,0.5-2.2,1.3v5.6h-1.9L84.8,28.2z"/>
<path class="st0" d="M106.1,19.9h1.9l-3.9,9.5c-0.9,2.2-2.1,2.9-3.4,2.9c-0.4,0-0.7-0.1-1.1-0.1v-1.6c0.3,0.1,0.6,0.1,0.8,0.1
	c0.9,0,1.6-0.6,2.1-1.9l0.2-0.4l-4-8.4h2l2.9,6.3L106.1,19.9z"/>
<path class="st0" d="M38.7,1.5v4.8c0.7-0.7,1.7-1.1,2.7-1.1c1.8-0.1,3.3,1.3,3.4,3c0,0.1,0,0.2,0,0.4v5.1h-1.9V8.7
	c0.1-1-0.6-1.9-1.6-2c-0.1,0-0.2,0-0.3,0c-1,0.1-1.8,0.6-2.3,1.4v5.5h-1.9V1.5H38.7L38.7,1.5z"/>
<path class="st0" d="M49.9,2.3v3h3v1.6h-3v3.8c0,1.1,0.5,1.5,1.6,1.5c0.6,0,1.1-0.1,1.7-0.3v1.6c-0.7,0.2-1.5,0.4-2.2,0.4
	c-1.4,0.2-2.7-0.8-2.8-2.2c0-0.2,0-0.3,0-0.5V6.9h-1.5V5.3H48V2.7L49.9,2.3z"/>
<path class="st0" d="M55.3,13.6V5.3h1.6v1c0.7-0.8,1.7-1.3,2.8-1.3c1-0.1,2,0.4,2.6,1.3c0.8-0.8,1.8-1.3,2.9-1.3
	C66.9,5,68.3,6.3,68.4,8c0,0.1,0,0.3,0,0.4v5.2h-1.9V8.5c0.1-0.9-0.5-1.7-1.4-1.7c-0.1,0-0.2,0-0.2,0c-0.8,0.1-1.6,0.5-2.1,1.1
	c0,0.2,0,0.4,0,0.6v5.2h-1.9V8.5c0.1-0.9-0.5-1.7-1.4-1.7c-0.1,0-0.2,0-0.2,0C58.3,6.8,57.5,7.2,57,8v5.6h-1.9L55.3,13.6z"/>
<rect x="71.1" y="1.4" class="st0" width="1.9" height="12.1"/>
<path class="st0" d="M14.7,0h-0.2L0,1.5v26.7l14.5,8.7l14.5-8.7V1.5L14.7,0z M27.2,27.1l-12.6,7.5L1.9,27.1V16.2l12.6,7.5V25
	l-8.6-5.1v1.3l8.7,5.2v1.4l-8.7-5.2v1.3l8.7,5.2l0,0l8.7-5.2v-1.3l0,0v-4.3l3.9-2.3L27.2,27.1L27.2,27.1z M27.2,14.6l-3.5,2l0,0
	l-1.6,1L14.5,13v1.3l6.5,3.9h-0.1l-0.1,0.1l-1,0.5l-5.4-3.2V17l4.2,2.5l-1,0.7l0,0l-3.2-1.9v1.3l2.1,1.2l-2.1,1.3L2,14.6l12.5-7.5
	l0,0L27.2,14.6z M27.2,13.2L14.5,5.8l0,0L1.9,13.2v-10l12.6-1.3l12.6,1.3L27.2,13.2L27.2,13.2z"/>
</svg>
